<svg width="24" height="25" viewBox="0 0 24 25" fill="none" xmlns="http://www.w3.org/2000/svg">
<g clip-path="url(#clip0_27_1529)">
<g clip-path="url(#clip1_27_1529)">
<path d="M23.745 12.52C23.745 11.73 23.675 10.98 23.555 10.25H12.255V14.76H18.725C18.435 16.24 17.585 17.49 16.325 18.34V21.34H20.185C22.445 19.25 23.745 16.17 23.745 12.52Z" fill="#4285F4"/>
<path d="M12.255 24.25C15.495 24.25 18.205 23.17 20.185 21.34L16.325 18.34C15.245 19.06 13.875 19.5 12.255 19.5C9.12504 19.5 6.47505 17.39 5.52505 14.54H1.54504V17.63C3.51504 21.55 7.56504 24.25 12.255 24.25Z" fill="#34A853"/>
<path d="M5.52501 14.54C5.27501 13.82 5.145 13.05 5.145 12.25C5.145 11.45 5.28501 10.68 5.52501 9.96V6.87H1.545C0.725004 8.49 0.255005 10.31 0.255005 12.25C0.255005 14.19 0.725004 16.01 1.545 17.63L5.52501 14.54Z" fill="#FBBC05"/>
<path d="M12.255 5C14.025 5 15.605 5.61 16.855 6.8L20.275 3.38C18.205 1.44 15.495 0.25 12.255 0.25C7.56504 0.25 3.51504 2.95 1.54504 6.87L5.52505 9.96C6.47505 7.11 9.12504 5 12.255 5Z" fill="#EA4335"/>
</g>
</g>
<defs>
<clipPath id="clip0_27_1529">
<rect width="24" height="24" fill="white" transform="translate(0 0.25)"/>
</clipPath>
<clipPath id="clip1_27_1529">
<rect width="24" height="24" fill="white" transform="translate(0 0.25)"/>
</clipPath>
</defs>
</svg>
