<svg width="127" height="26" viewBox="0 0 127 26" fill="none" xmlns="http://www.w3.org/2000/svg">
<g clip-path="url(#clip0_27_1474)">
<path d="M109.27 12.3046L105.456 7.34039H100.276H97.8273V12.3046H100.276V24.7793H105.456V12.3046H109.27Z" fill="black"/>
<path d="M10.8793 12.6042C10.6626 11.2989 9.60069 10.6142 7.88861 10.6142C6.39324 10.6142 5.39633 11.192 5.39633 12.0478C5.39633 12.6898 5.91645 13.0107 7.54185 13.3745L10.7927 14.0592C12.9382 14.4871 14.0435 14.9579 14.802 15.7496C15.6472 16.5413 16.124 17.8465 16.124 19.2374C16.124 22.9177 13.0899 25.2286 8.21368 25.2286C3.33749 25.2286 0.281736 22.9819 0 19.1304H4.85453C5.13626 20.778 6.24153 21.5483 8.32204 21.5483C9.96912 21.5483 11.031 20.9064 11.031 19.8579C11.031 19.0234 10.4459 18.5954 9.05889 18.2745L5.85144 17.547C1.97215 16.7125 0.476784 15.3002 0.476784 12.54C0.476784 9.03082 3.29414 6.91248 7.99696 6.91248C12.6998 6.91248 15.2571 8.92383 15.7339 12.6042H10.8793Z" fill="black"/>
<path d="M23.3623 4.96528H18.1827V0.75H23.3623V4.96528ZM23.3623 24.7793H18.1827V7.38319H23.3623V24.8007V24.7793Z" fill="black"/>
<path d="M35.0435 11.1919H31.8577V17.9749C31.8577 20.7138 31.9661 20.9278 33.1797 20.9278H35.0435V24.7793H31.8577C29.6038 24.7793 28.4552 24.4583 27.6967 23.6238C26.8948 22.7679 26.6781 21.8264 26.6781 19.109V2.07666H31.8577V7.59718H35.0435V11.1919Z" fill="black"/>
<path d="M41.2419 17.5898C41.567 19.9649 42.9973 21.2701 45.2295 21.2701C46.6165 21.2701 47.5918 20.7994 48.2853 19.7295H53.5516C52.5763 23.1103 49.2822 25.2714 45.0778 25.2714C39.6381 25.2714 36.0189 21.5911 36.0189 16.1133C36.0189 10.6356 39.7032 6.91248 45.0345 6.91248C48.7621 6.91248 51.5577 8.75265 52.8797 12.0264C53.5082 13.5457 53.7466 15.1719 53.7466 17.5684H41.2202L41.2419 17.5898ZM48.437 13.9736C48.2203 11.9195 47.0066 10.8068 45.0128 10.8068C43.019 10.8068 41.697 11.9195 41.2852 13.9736H48.437Z" fill="black"/>
<path d="M59.0345 24.7792L53.7682 7.36176H59.0345L60.5299 13.0535C60.9416 14.5941 61.4834 17.2259 61.7001 18.681C62.2203 16.0919 62.6537 14.0591 62.9138 13.0535L64.4091 7.36176H68.8952L70.4556 13.0535C71.1058 15.7281 71.4309 17.2259 71.6909 18.681C71.9727 16.8836 72.3194 15.3002 72.8179 13.0535L74.2049 7.36176H79.5795L74.5733 24.7792H69.6104L67.9633 18.681C67.4432 16.584 67.1181 15.1076 66.6414 12.8395C66.1212 15.2574 65.6878 17.1618 65.3194 18.681L63.8673 24.7792H59.0128H59.0345Z" fill="black"/>
<path d="M80.3814 12.8609C80.7064 8.85964 83.2204 6.91248 88.1833 6.91248C90.8489 6.91248 92.8861 7.533 94.2731 8.70986C95.5518 9.82252 96.0285 11.2347 96.0285 13.781V21.7837C96.0285 23.6666 96.0936 23.902 96.6787 24.7793H91.3907C91.174 24.1588 91.174 24.0518 90.979 23.4099C89.2669 24.8221 88.0316 25.25 85.9511 25.25C82.0501 25.25 79.4495 23.0889 79.4495 19.8151C79.4495 16.5413 81.53 14.8509 86.4495 14.0592L89.2669 13.5885C90.4372 13.4173 90.8273 13.1177 90.8273 12.3902C90.8273 11.4273 89.8087 10.8068 88.1183 10.8068C86.2111 10.8068 85.1925 11.4487 84.9758 12.8609H80.338H80.3814ZM91.0006 16.4985C90.4588 16.7125 89.9821 16.8623 89.0935 17.0334L87.2297 17.44C85.3659 17.8679 84.5641 18.4885 84.5641 19.5369C84.5641 20.6924 85.5393 21.3771 87.1864 21.3771C88.8334 21.3771 90.1338 20.6496 90.979 19.1732V16.4985H91.0006Z" fill="black"/>
<path d="M114.428 17.5898C114.753 19.9649 116.183 21.2701 118.416 21.2701C119.803 21.2701 120.778 20.7994 121.471 19.7295H126.738C125.762 23.1103 122.468 25.2714 118.264 25.2714C112.824 25.2714 109.205 21.5911 109.205 16.1133C109.205 10.6356 112.889 6.91248 118.221 6.91248C121.948 6.91248 124.744 8.75265 126.066 12.0264C126.694 13.5457 126.933 15.1719 126.933 17.5684H114.406L114.428 17.5898ZM121.623 13.9736C121.406 11.9195 120.193 10.8068 118.199 10.8068C116.205 10.8068 114.883 11.9195 114.471 13.9736H121.623Z" fill="black"/>
</g>
<defs>
<clipPath id="clip0_27_1474">
<rect width="126.955" height="24.5" fill="white" transform="translate(0 0.75)"/>
</clipPath>
</defs>
</svg>
